<?xml version="1.0" encoding="UTF-8"?>
<svg xmlns="http://www.w3.org/2000/svg" xmlns:xlink="http://www.w3.org/1999/xlink" viewBox="0 0 120 120" width="120px" height="120px">
<g id="surface68393903">
<path style=" stroke:none;fill-rule:nonzero;fill:rgb(0%,0%,0%);fill-opacity:1;" d="M 60 2.398438 C 28.191406 2.398438 2.398438 28.191406 2.398438 60 C 2.398438 86.992188 20.984375 109.574219 46.042969 115.824219 C 45.773438 115.046875 45.601562 114.144531 45.601562 113.027344 L 45.601562 103.179688 C 43.261719 103.179688 39.34375 103.179688 38.363281 103.179688 C 34.421875 103.179688 30.917969 101.488281 29.21875 98.335938 C 27.332031 94.839844 27.003906 89.488281 22.328125 86.210938 C 20.941406 85.125 22 83.878906 23.597656 84.046875 C 26.546875 84.882812 28.996094 86.910156 31.300781 89.914062 C 33.59375 92.921875 34.675781 93.605469 38.960938 93.605469 C 41.039062 93.605469 44.148438 93.484375 47.078125 93.023438 C 48.652344 89.027344 51.375 85.34375 54.699219 83.605469 C 35.519531 81.632812 26.367188 72.089844 26.367188 59.136719 C 26.367188 53.558594 28.742188 48.164062 32.777344 43.617188 C 31.453125 39.105469 29.789062 29.902344 33.289062 26.398438 C 41.917969 26.398438 47.136719 31.996094 48.390625 33.507812 C 52.691406 32.035156 57.414062 31.199219 62.375 31.199219 C 67.347656 31.199219 72.089844 32.035156 76.402344 33.519531 C 77.640625 32.015625 82.863281 26.398438 91.511719 26.398438 C 95.027344 29.910156 93.339844 39.148438 92 43.652344 C 96.015625 48.1875 98.375 53.566406 98.375 59.136719 C 98.375 72.082031 89.238281 81.621094 70.085938 83.601562 C 75.355469 86.351562 79.199219 94.078125 79.199219 99.902344 L 79.199219 113.027344 C 79.199219 113.523438 79.089844 113.882812 79.03125 114.3125 C 101.476562 106.445312 117.601562 85.132812 117.601562 60 C 117.601562 28.191406 91.808594 2.398438 60 2.398438 Z M 60 2.398438 "/>
<path style=" stroke:none;fill-rule:nonzero;fill:rgb(0%,0%,0%);fill-opacity:1;" d="M 31.117188 55.703125 L 33.855469 63.941406 L 36.421875 55.703125 L 38.429688 55.703125 L 34.011719 68.398438 C 33.328125 70.226562 32.238281 71.144531 30.75 71.144531 L 30.390625 71.109375 L 29.691406 70.980469 L 29.691406 69.457031 L 30.199219 69.496094 C 30.835938 69.496094 31.332031 69.367188 31.6875 69.105469 C 32.046875 68.851562 32.339844 68.382812 32.566406 67.695312 L 32.984375 66.574219 L 29.0625 55.703125 Z M 39.53125 61.109375 C 39.53125 59.394531 39.925781 58.03125 40.71875 57.019531 C 41.507812 56.007812 42.558594 55.5 43.867188 55.5 C 45.210938 55.5 46.257812 55.972656 47.007812 56.921875 L 47.101562 55.703125 L 48.816406 55.703125 L 48.816406 66.433594 C 48.816406 67.855469 48.394531 68.976562 47.550781 69.796875 C 46.707031 70.621094 45.574219 71.03125 44.15625 71.03125 C 43.359375 71.03125 42.582031 70.859375 41.824219 70.519531 C 41.066406 70.179688 40.488281 69.71875 40.085938 69.128906 L 41.0625 68 C 41.867188 68.996094 42.851562 69.496094 44.019531 69.496094 C 44.933594 69.496094 45.648438 69.238281 46.15625 68.722656 C 46.671875 68.207031 46.925781 67.480469 46.925781 66.546875 L 46.925781 65.601562 C 46.171875 66.46875 45.144531 66.902344 43.84375 66.902344 C 42.558594 66.902344 41.519531 66.382812 40.722656 65.347656 C 39.929688 64.3125 39.53125 62.898438 39.53125 61.109375 Z M 41.421875 61.320312 C 41.421875 62.5625 41.671875 63.539062 42.179688 64.246094 C 42.691406 64.953125 43.402344 65.304688 44.316406 65.304688 C 45.503906 65.304688 46.371094 64.765625 46.925781 63.691406 L 46.925781 58.671875 C 46.351562 57.621094 45.484375 57.097656 44.335938 57.097656 C 43.417969 57.097656 42.703125 57.453125 42.191406 58.160156 C 41.675781 58.875 41.421875 59.925781 41.421875 61.320312 Z M 56.96875 55.640625 L 56.96875 57.390625 C 56.683594 57.339844 56.375 57.316406 56.039062 57.316406 C 54.808594 57.316406 53.972656 57.84375 53.53125 58.898438 L 53.53125 66.699219 L 51.652344 66.699219 L 51.652344 55.703125 L 53.480469 55.703125 L 53.515625 56.972656 C 54.128906 55.992188 55.003906 55.5 56.136719 55.5 C 56.5 55.5 56.777344 55.546875 56.96875 55.640625 Z M 62.914062 65.367188 C 63.585938 65.367188 64.171875 65.164062 64.667969 64.757812 C 65.171875 64.355469 65.449219 63.84375 65.5 63.234375 L 67.285156 63.234375 C 67.246094 63.863281 67.03125 64.464844 66.632812 65.035156 C 66.230469 65.601562 65.695312 66.054688 65.027344 66.394531 C 64.359375 66.734375 63.65625 66.902344 62.914062 66.902344 C 61.414062 66.902344 60.222656 66.402344 59.34375 65.40625 C 58.457031 64.40625 58.015625 63.039062 58.015625 61.304688 L 58.015625 60.988281 C 58.015625 59.917969 58.210938 58.964844 58.605469 58.132812 C 58.996094 57.300781 59.558594 56.652344 60.292969 56.191406 C 61.027344 55.730469 61.898438 55.5 62.902344 55.5 C 64.136719 55.5 65.160156 55.871094 65.972656 56.609375 C 66.792969 57.347656 67.226562 58.304688 67.285156 59.484375 L 65.5 59.484375 C 65.449219 58.773438 65.179688 58.191406 64.695312 57.734375 C 64.214844 57.277344 63.613281 57.046875 62.902344 57.046875 C 61.945312 57.046875 61.207031 57.390625 60.679688 58.078125 C 60.15625 58.761719 59.894531 59.757812 59.894531 61.058594 L 59.894531 61.417969 C 59.894531 62.679688 60.152344 63.65625 60.675781 64.34375 C 61.195312 65.023438 61.941406 65.367188 62.914062 65.367188 Z M 68.898438 61.230469 L 68.898438 61.101562 C 68.898438 60.023438 69.109375 59.054688 69.535156 58.195312 C 69.957031 57.332031 70.546875 56.667969 71.300781 56.203125 C 72.054688 55.734375 72.917969 55.5 73.886719 55.5 C 75.382812 55.5 76.59375 56.015625 77.523438 57.050781 C 78.445312 58.089844 78.90625 59.472656 78.90625 61.191406 L 78.90625 61.320312 C 78.90625 62.394531 78.703125 63.355469 78.292969 64.203125 C 77.882812 65.054688 77.296875 65.71875 76.53125 66.191406 C 75.769531 66.664062 74.894531 66.902344 73.90625 66.902344 C 72.417969 66.902344 71.207031 66.382812 70.28125 65.347656 C 69.359375 64.3125 68.898438 62.9375 68.898438 61.230469 Z M 70.789062 61.320312 C 70.789062 62.539062 71.070312 63.519531 71.636719 64.257812 C 72.203125 64.996094 72.960938 65.367188 73.90625 65.367188 C 74.859375 65.367188 75.621094 64.992188 76.183594 64.246094 C 76.746094 63.496094 77.027344 62.449219 77.027344 61.101562 C 77.027344 59.894531 76.738281 58.917969 76.167969 58.167969 C 75.597656 57.421875 74.835938 57.046875 73.886719 57.046875 C 72.957031 57.046875 72.210938 57.417969 71.644531 58.15625 C 71.074219 58.894531 70.789062 59.949219 70.789062 61.320312 Z M 86.578125 55.640625 L 86.578125 57.390625 C 86.292969 57.339844 85.984375 57.316406 85.65625 57.316406 C 84.421875 57.316406 83.585938 57.84375 83.148438 58.898438 L 83.148438 66.699219 L 81.261719 66.699219 L 81.261719 55.703125 L 83.097656 55.703125 L 83.125 56.972656 C 83.738281 55.992188 84.613281 55.5 85.746094 55.5 C 86.113281 55.5 86.390625 55.546875 86.578125 55.640625 Z M 92.675781 66.902344 C 91.1875 66.902344 89.976562 66.414062 89.042969 65.433594 C 88.105469 64.453125 87.636719 63.144531 87.636719 61.507812 L 87.636719 61.160156 C 87.636719 60.070312 87.84375 59.097656 88.261719 58.238281 C 88.675781 57.378906 89.257812 56.710938 90.007812 56.226562 C 90.757812 55.742188 91.570312 55.5 92.445312 55.5 C 93.875 55.5 94.984375 55.96875 95.773438 56.910156 C 96.570312 57.851562 96.96875 59.203125 96.96875 60.957031 L 96.96875 61.738281 L 89.515625 61.738281 C 89.542969 62.820312 89.859375 63.699219 90.464844 64.363281 C 91.074219 65.03125 91.84375 65.367188 92.777344 65.367188 C 93.441406 65.367188 94.003906 65.230469 94.464844 64.960938 C 94.925781 64.691406 95.328125 64.332031 95.671875 63.886719 L 96.820312 64.78125 C 95.902344 66.195312 94.519531 66.902344 92.675781 66.902344 Z M 92.445312 57.046875 C 91.683594 57.046875 91.046875 57.324219 90.53125 57.875 C 90.019531 58.425781 89.699219 59.199219 89.578125 60.195312 L 95.082031 60.195312 L 95.082031 60.050781 C 95.03125 59.097656 94.773438 58.359375 94.3125 57.835938 C 93.851562 57.308594 93.230469 57.046875 92.445312 57.046875 Z M 92.445312 57.046875 "/>
</g>
</svg>
